<svg xmlns="http://www.w3.org/2000/svg" width="185.6" height="37.9" viewBox="0 0 185.6 37.9">
  <path d="M14.4 21.3C12.8 23 10.5 24 8.1 24c-2.2 0-4.4-.9-5.9-2.4C0 19.5 0 17.4 0 12c0-5.3 0-7.4 2.2-9.6C3.8.9 5.9 0 8.1 0c4.2 0 7.4 2.7 8.1 6.9h-1.8c-.7-3.3-3.1-5.3-6.3-5.3-1.7 0-3.3.6-4.5 1.8C1.9 5.1 1.8 6.9 1.8 12s.1 6.9 1.8 8.6c1.2 1.2 2.8 1.8 4.5 1.8 1.9 0 3.7-.8 4.9-2.3 1-1.3 1.4-2.7 1.4-4.7v-2.1H8.1v-1.6h8.2v3.8c0 2.6-.5 4.3-1.9 5.8zm22.2 2.5l-5.7-10.9h-6.5v10.9h-1.8V.2h9c3.9 0 6.8 2.2 6.8 6.3 0 3.5-2.1 5.8-5.5 6.4l5.7 10.9h-2zm-5.2-22h-7v9.6h7c3 0 5.2-1.5 5.2-4.8s-2.2-4.8-5.2-4.8m27 22l-2.1-5.7h-11l-2.1 5.7h-1.9L50 .2h1.6l8.7 23.6h-1.9zM50.8 2.6l-5 13.9h9.9L50.8 2.6zM80 23.8L66.3 3.3v20.5h-1.8V.2h1.8L80 20.7V.2h1.8v23.6H80zm23-2.1c-1.4 1.4-3.5 2.1-5.9 2.1h-8V.2h8c2.5 0 4.5.8 5.9 2.2 2.4 2.4 2.3 6.1 2.3 9.3 0 3.2.1 7.6-2.3 10m-1.2-18.1c-1.4-1.4-3.2-1.8-5.1-1.8H91v20.4h5.7c1.9 0 3.7-.4 5.1-1.8 1.9-1.9 1.8-6.1 1.8-8.7-.1-2.6.1-6.2-1.8-8.1z" fill="#ed1c24"/>
  <path d="M110.8 23.8V.2h4.6v19.5h10.8v4.1h-15.4zm25.6-9.7v9.7h-4.6v-9.7L124.7.2h5l4.4 9.5 4.4-9.5h5l-7.1 13.9zm24 7.3c-1.7 1.7-3.7 2.6-6.4 2.6s-4.8-.9-6.4-2.6c-2.4-2.4-2.3-5.3-2.3-9.4 0-4.1-.1-7 2.3-9.4C149.3.9 151.3 0 154 0s4.7.9 6.4 2.6c2.4 2.4 2.4 5.3 2.4 9.4-.1 4.1 0 7.1-2.4 9.4m-3.5-16c-.7-.8-1.7-1.3-3-1.3s-2.3.5-3 1.3c-.9 1-1.1 2.1-1.1 6.6s.2 5.6 1.1 6.6c.7.8 1.7 1.3 3 1.3s2.3-.5 3-1.3c.9-1 1.2-2.1 1.2-6.6s-.3-5.6-1.2-6.6zm24.6 18.4l-9.4-14.5v14.5h-4.6V.2h4.1l9.4 14.5V.2h4.6v23.6h-4.1z" fill="#050607"/>
  <path d="M159.4 33.2c0-.8 0-2-1.1-2s-1 1.5-1 2.3c0 .7.1 1.8 1 1.8 1 0 1.1-.7 1.1-2.1m-2-1.9c.3-.5.7-.7 1.2-.7.9 0 1.7.3 1.7 2.6 0 1.3 0 2.8-1.7 2.8-.5 0-.9-.2-1.2-.6v2.5h-.9v-7.3h.9v.7zm-61.1 3.1c0 .5.2 1 .8 1 .5 0 1.2-.3 1.1-2-.8-.1-1.9-.1-1.9 1m1.9.8c-.3.6-.7.9-1.3.9-1.1 0-1.4-.7-1.4-1.7 0-1.6 1.6-1.7 2.8-1.6 0-.7 0-1.5-.9-1.5-.6 0-.9.4-.8.9h-.9c0-1.2.7-1.6 1.8-1.6 1.4 0 1.7.7 1.7 1.6v2.5c0 .4 0 .8.1 1.3h-.9l-.2-.8zm15.4.7v-3.7c0-.5-.2-1-.8-1-.3 0-.6.2-.7.4-.2.3-.2.6-.2.8V36h-.9v-4.2c0-.4 0-.7-.1-1.1h.9v.7c.2-.6.7-.8 1.3-.8.5 0 1 .2 1.2.7.3-.6.8-.7 1.3-.7.6 0 1.4.1 1.4 1.4v4h-.9v-3.7c0-.5-.2-1-.8-1-.3 0-.4 0-.7.2-.2.2-.3.7-.3.9V36c.2-.1-.7-.1-.7-.1zm12.1-7.5l-1.4 1.5h-.7l.9-1.5h1.2zm-.2 4.5c0-1.5-.4-1.7-1.1-1.7-.6 0-1 .3-1 1.7h2.1zm-2.1.7c0 1.5.4 1.8 1.1 1.8.6 0 .9-.5.9-1h.9c0 1.2-.7 1.7-1.8 1.7s-2-.3-2-2.7c0-1.5.2-2.8 2-2.8 1.5 0 1.9.8 1.9 2.6v.4h-3zm8.8-2.9v-1l.9-.4v1.4h1.1v.6H133v3.2c0 .3 0 .8.8.8h.4v.7c-.3 0-.6.1-.9.1-.8 0-1.2-.3-1.2-.9v-3.7h-.9v-.6l1-.2zm8.4.8c.4-.8.8-.9 1.7-.9v.9h-.4c-.9 0-1.2.7-1.2 1.4V36h-.9v-5.3h.9l-.1.8zm9.7 1.5c0-1.4-.4-1.8-1.1-1.8-.7 0-1.1.3-1.1 1.8 0 1.7.2 2.3 1.1 2.3.8 0 1.1-.6 1.1-2.3m-3.1.4c0-1.5.2-2.8 2-2.8s2 1.3 2 2.8c0 2.3-.9 2.7-2 2.7-1.2-.1-2-.4-2-2.7zm21.5-.4c0-1.4-.4-1.8-1.1-1.8s-1.1.3-1.1 1.8c0 1.7.2 2.3 1.1 2.3.8 0 1.1-.6 1.1-2.3m-3.1.4c0-1.5.2-2.8 2-2.8s2 1.3 2 2.8c0 2.3-.9 2.7-2 2.7-1.2-.1-2-.4-2-2.7zm10.4 2.5h-.9v-7.5h.9v7.5zm8.4-3c0-1.5-.4-1.7-1.1-1.7-.5 0-1 .3-1 1.7h2.1zm-2.1.7c0 1.5.4 1.8 1.1 1.8.6 0 .9-.5.9-1h.9c0 1.2-.7 1.7-1.8 1.7s-2-.3-2-2.7c0-1.5.2-2.8 2-2.8 1.5 0 1.9.8 1.9 2.6v.4h-3zm-91.8 2.3h-.9v-7.5h.9v7.5z" fill="#231f20"/>
</svg>
